<svg xmlns="http://www.w3.org/2000/svg" width="33" height="33" viewBox="0 0 33 33" fill="none">
  <path d="M29.8334 22.7314V26.7314C29.8349 27.1027 29.7589 27.4702 29.6101 27.8105C29.4613 28.1507 29.2431 28.4561 28.9695 28.7072C28.6959 28.9582 28.3728 29.1493 28.0211 29.2683C27.6693 29.3873 27.2966 29.4314 26.9267 29.398C22.8239 28.9522 18.8827 27.5502 15.4201 25.3047C12.1985 23.2576 9.46719 20.5263 7.42007 17.3047C5.16671 13.8263 3.7644 9.86601 3.32674 5.74469C3.29342 5.37598 3.33724 5.00437 3.45541 4.65352C3.57357 4.30267 3.7635 3.98027 4.01309 3.70685C4.26269 3.43342 4.56648 3.21497 4.90513 3.06538C5.24378 2.9158 5.60986 2.83837 5.98007 2.83802H9.98007C10.6271 2.83165 11.2545 3.06079 11.7451 3.48273C12.2357 3.90467 12.5562 4.49062 12.6467 5.13135C12.8156 6.41144 13.1287 7.66832 13.5801 8.87802C13.7595 9.35525 13.7983 9.87391 13.6919 10.3725C13.5856 10.8711 13.3386 11.3288 12.9801 11.6914L11.2867 13.3847C13.1848 16.7227 15.9487 19.4866 19.2867 21.3847L20.9801 19.6914C21.3426 19.3329 21.8003 19.0858 22.2989 18.9795C22.7975 18.8731 23.3162 18.912 23.7934 19.0914C25.0031 19.5428 26.26 19.8559 27.5401 20.0247C28.1878 20.1161 28.7793 20.4423 29.2021 20.9413C29.625 21.4404 29.8496 22.0775 29.8334 22.7314Z" stroke="#4B5563" stroke-width="2" stroke-linecap="round" stroke-linejoin="round"/>
</svg>