<svg xmlns="http://www.w3.org/2000/svg" width="44" height="65" viewBox="0 0 44 65" fill="none">
  <g clip-path="url(#clip0_408_1135)">
    <path d="M22 32.1713C22 29.3423 23.1238 26.6292 25.1242 24.6288C27.1246 22.6284 29.8377 21.5046 32.6667 21.5046C35.4956 21.5046 38.2087 22.6284 40.2091 24.6288C42.2095 26.6292 43.3333 29.3423 43.3333 32.1713C43.3333 35.0003 42.2095 37.7134 40.2091 39.7138C38.2087 41.7142 35.4956 42.838 32.6667 42.838C29.8377 42.838 27.1246 41.7142 25.1242 39.7138C23.1238 37.7134 22 35.0003 22 32.1713Z" fill="#1ABCFE"/>
    <path d="M0.666504 53.5048C0.666504 50.6758 1.79031 47.9627 3.7907 45.9623C5.79109 43.9619 8.50419 42.8381 11.3332 42.8381H21.9998V53.5048C21.9998 56.3338 20.876 59.0469 18.8756 61.0473C16.8753 63.0477 14.1621 64.1715 11.3332 64.1715C8.50419 64.1715 5.79109 63.0477 3.7907 61.0473C1.79031 59.0469 0.666504 56.3338 0.666504 53.5048Z" fill="#0ACF83"/>
    <path d="M22 0.171387V21.5047H32.6667C35.4956 21.5047 38.2087 20.3809 40.2091 18.3805C42.2095 16.3801 43.3333 13.667 43.3333 10.8381C43.3333 8.00908 42.2095 5.29597 40.2091 3.29558C38.2087 1.29519 35.4956 0.171387 32.6667 0.171387L22 0.171387Z" fill="#FF7262"/>
    <path d="M0.666504 10.8381C0.666504 13.667 1.79031 16.3801 3.7907 18.3805C5.79109 20.3809 8.50419 21.5047 11.3332 21.5047H21.9998V0.171387H11.3332C8.50419 0.171387 5.79109 1.29519 3.7907 3.29558C1.79031 5.29597 0.666504 8.00908 0.666504 10.8381Z" fill="#F24E1E"/>
    <path d="M0.666504 32.1713C0.666504 35.0003 1.79031 37.7134 3.7907 39.7138C5.79109 41.7142 8.50419 42.838 11.3332 42.838H21.9998V21.5046H11.3332C8.50419 21.5046 5.79109 22.6284 3.7907 24.6288C1.79031 26.6292 0.666504 29.3423 0.666504 32.1713Z" fill="#A259FF"/>
  </g>
  <defs>
    <clipPath id="clip0_408_1135">
      <rect width="42.6667" height="64" fill="white" transform="translate(0.666504 0.171387)"/>
    </clipPath>
  </defs>
</svg>